<svg xmlns="http://www.w3.org/2000/svg" xmlns:xlink="http://www.w3.org/1999/xlink" width="667" height="223" viewBox="0 0 667.36 223.47">
<style type="text/css">.st0{fill:#FFFFFF;}.st1{fill:#FFC400;}</style>
<symbol  id="A" viewBox="-32.94 0 65.91 70.8">
	<path class="st0" d="M9.78,13.84h-19.9l-3.33-11.61C-14.13,0.35-14.79,0-16.68,0h-14.85c-1.24,0-1.62,0.7-1.31,1.92l19.9,62.52
		c1.5,4.63,3.27,6.36,8.58,6.36h8.18c4.78,0,7.22-0.4,9.09-6.26c0,0,19.51-61.65,19.9-62.62C33.2,0.95,32.9,0,31.5,0
		S16.25,0,16.25,0c-2.32,0-2.85,0.69-3.13,1.72L9.78,13.84z M-5.87,28.79H5.64c-2.42,9.92-1.27,4.97-5.15,22.42h-0.81
		C-4.44,33.39-3.2,38.33-5.87,28.79z"/>
</symbol>
<symbol  id="Ab" viewBox="-9.75 0 19.51 21.78">
	<path class="st0" d="M3.52,4.53h-7.1l-1.21-3.94C-4.93,0.11-5.16,0-5.66,0h-3.63c-0.35,0-0.55,0.16-0.43,0.62l6.45,19.44
		c0.59,2.01,1.65,1.71,4.12,1.71c1.38,0,1.9-0.14,2.42-1.71L9.72,0.62C9.82,0.29,9.73,0,9.31,0H5.62c-0.67,0-0.81,0.18-0.9,0.5
		L3.52,4.53z M-2.47,8.34H2.4c-1.45,4.85-0.92,2.94-2.33,8.4h-0.19C-1.56,11.28-1.02,13.19-2.47,8.34z"/>
</symbol>
<symbol  id="Bb" viewBox="-8.52 0 17.06 21.73">
	<path class="st0" d="M5.21,11.87C10.62,9.74,9.55,0,1.12,0h-7.78c-1.31,0-1.86,0.39-1.86,1.89v17.92c0,1.49,0.54,1.92,1.86,1.92
		h7.59c8.09,0,7.95-7.59,4.28-9.64V11.87z M-3.81,13.52H0.4c3.13,0,3.12,4.09,0.16,4.09h-4.37V13.52z M0.65,9.7h-4.46V4.15h4.46
		C4.63,4.15,4.77,9.7,0.65,9.7z"/>
</symbol>
<symbol  id="D" viewBox="-8.79 0 17.58 21.73">
	<path class="st0" d="M-6.93,0c-1.31,0-1.86,0.39-1.86,1.89v17.92c0,1.49,0.54,1.92,1.86,1.92h5.8c6.17,0,9.92-3.69,9.92-10.76
		C8.79,4.33,5.8,0-0.79,0H-6.93z M3.92,10.97c0,7.22-4.41,6.63-8,6.63V4.15C-0.4,4.15,3.92,3.48,3.92,10.97z"/>
</symbol>
<symbol  id="E" viewBox="-7.77 0 15.53 21.73">
	<path class="st0" d="M7.15,0h-9.18c-3.68,0-5.73,1.9-5.73,5.7V16c0,3.44,1.95,5.74,5.7,5.74h8.9c0.46,0,0.59-0.14,0.59-0.74v-2.64
		c0-0.51-0.12-0.68-0.59-0.68h-7.87c-2.47,0-2.01-1.75-2.01-4.31h8.9c0.46,0,0.59-0.14,0.59-0.74V10.2c0-0.58-0.16-0.71-0.59-0.71
		h-8.9V5.95c0-1.26,0.48-1.86,2.01-1.86h8.18c0.52,0,0.62-0.13,0.62-0.74V0.71C7.77,0.16,7.59,0,7.15,0z"/>
</symbol>
<symbol  id="F" viewBox="-26.01 -0.07 52.07 70.77">
	<path class="st0" d="M-23.68,0c-1.55,0-2.32,0.67-2.32,2.02v49.49c0,11.75,6.84,19.19,19.39,19.19h30.7c1.71,0,1.92-0.32,1.92-2.42
		c0-13.19,0.56-13.63-1.92-13.63H-0.86c-7.11,0-6.06-4.91-6.06-12.02h26.56c1.68,0,1.92-0.38,1.92-2.52
		c0-11.14,0.57-12.83-1.92-12.83H-6.92V2.02C-6.92-0.64-6.56,0-23.68,0z"/>
</symbol>
<symbol  id="Fb" viewBox="-7.69 0 15.38 21.73">
	<path class="st0" d="M-3.69,0h-3.29c-0.54,0-0.71,0.2-0.71,0.65V16c0,3.49,1.94,5.74,5.7,5.74h9.05c0.49,0,0.62-0.13,0.62-0.74
		v-2.64c0-0.49-0.13-0.68-0.62-0.68h-8.03c-1.26,0-2.01-0.43-2.01-1.92V12.9h8.8c0.48,0,0.59-0.13,0.59-0.74V9.73
		c0-0.55-0.19-0.71-0.59-0.71h-8.8V0.65C-2.98,0.08-3.08,0-3.69,0z"/>
</symbol>
<symbol  id="G" viewBox="-9.01 0 18.01 22.42">
	<path class="st0" d="M1.19,4.25c1.67,0,2.56,0.22,3.22,0.46L4.45,9.3c-1.44,0.08-2.9-0.16-4.28-0.74c-0.6-0.22-0.74-0.23-0.93,0.19
		l-0.81,2.51c-0.16,0.43-0.06,0.61,0.31,0.77c1.39,0.68,3.47,1.24,5.52,1.24c3.99,0,4.74-0.73,4.74-3.69V3.07
		c0-0.8-0.22-1.13-0.74-1.46C6.24,0.4,3.11,0,0.76,0c-6.79,0-9.77,4.19-9.77,11.1c0,12.57,11.52,12.55,16.28,9.92
		c0.5-0.28,0.51-0.47,0.22-1.08l-0.96-2.2c-0.21-0.59-0.38-0.66-0.93-0.46c-5.61,2.03-9.64,0.34-9.64-6.2
		C-4.05,7.04-2.9,4.25,1.19,4.25z"/>
</symbol>
<symbol  id="H" viewBox="-8.93 0 17.86 21.7">
	<path class="st0" d="M8.18,0H4.93C4.38,0,4.22,0.17,4.22,0.65v8.68h-8.4V0.65C-4.19,0.12-4.32,0-4.93,0h-3.29
		c-0.54,0-0.71,0.2-0.71,0.65v20.4c0,0.45,0.17,0.65,0.71,0.65h3.29c0.6,0,0.74-0.12,0.74-0.65v-7.72h8.4v7.72
		c0,0.48,0.17,0.65,0.71,0.65h3.25c0.61,0,0.74-0.12,0.74-0.65V0.65C8.93,0.11,8.79,0,8.18,0z"/>
</symbol>
<symbol  id="I" viewBox="-9.54 -35.35 19.09 70.7">
	<path class="st0" d="M7.12-35.35H-7.22c-1.55,0-2.32,0.71-2.32,2.12v66.46c0,1.41,0.77,2.12,2.32,2.12H7.12
		c2.02,0,2.42-0.3,2.42-2.12v-66.46C9.54-35.05,9.14-35.35,7.12-35.35z"/>
</symbol>
<symbol  id="Ib" viewBox="-2.37 -10.85 4.74 21.7">
	<path class="st0" d="M1.63-10.85h-3.29c-0.54,0-0.71,0.2-0.71,0.65v20.4c0,0.46,0.17,0.65,0.71,0.65h3.29
		c0.6,0,0.74-0.11,0.74-0.65v-20.4C2.37-10.74,2.23-10.85,1.63-10.85z"/>
</symbol>
<symbol  id="K" viewBox="-31.82 -35.35 63.65 70.7">
	<path class="st0" d="M8.37,9.39L31.3-32.62c0.87-1.51,0.72-2.73-1.01-2.73H15.14c-3.75,0-4.35,0.13-5.66,2.63L-4.65-5.86
		l-8.08-9.39v-18.08c0-1.78-0.38-2.02-2.44-2.02h-14.32c-1.56,0-2.33,0.67-2.33,2.02v66.66c0,1.35,0.78,2.02,2.33,2.02h14.32
		c2.07,0,2.44-0.25,2.44-2.02V10.5l0.3-0.2c10.79,13.77,6.65,8.5,18.18,23.13c1.56,1.82,2.16,1.92,5.66,1.92h16.36
		c1.29,0,2.04-0.99,0.91-2.12L8.37,9.39z"/>
</symbol>
<symbol  id="M" viewBox="-38.28 0 76.56 70.76">
	<path class="st0" d="M20.4,35.45H19.8C7.69,8.4,8.11,8.28,3.74,8.28h-6.77c-4.11,0-3.42-0.85-16.06,25.96h-0.61V1.92
		c0-1.62-0.32-1.92-2.22-1.92h-14.04c-1.96,0-2.32,0.39-2.32,1.92v60.8c0,5.56,1.5,7.98,7.27,7.98c10.46,0,12.19,0.96,15.15-4.95
		C-5.94,45.17-9.57,52.77,0.1,32.42h0.4c9.68,20.1,6.04,12.57,15.96,33.03c3.06,6.12,5.64,5.25,14.64,5.25
		c4.88,0,7.17-1.46,7.17-7.27V1.92c0-1.67-0.33-1.92-2.32-1.92H22.62c-1.89,0-2.22,0.36-2.22,1.92V35.45z"/>
</symbol>
<symbol  id="Mb" viewBox="-11.18 0 22.35 21.75">
	<path class="st0" d="M6.68,12.49H6.49c-1.6-3.63-0.76-1.74-3.84-8.59C2.18,2.79,1.78,2.54,0.88,2.54h-1.71
		c-0.93,0-1.2,0.19-1.74,1.36c-2.36,4.95-1.48,3.08-3.84,8.21h-0.19V0.62C-6.59,0.11-6.7,0-7.3,0h-3.16c-0.6,0-0.71,0.15-0.71,0.62
		v18.94c0,1.58,0.55,2.17,1.99,2.17c2.46,0,3.08,0.27,3.88-1.46C-1.25,11.2-2.42,13.85,0,8.31h0.12c2.59,5.94,1.48,3.42,5.28,11.9
		c0.78,1.75,1.52,1.52,3.79,1.52c1.53,0,1.99-0.65,1.99-2.02V0.62C11.18,0.1,11.06,0,10.46,0H7.37C6.8,0,6.68,0.14,6.68,0.62V12.49z
		"/>
</symbol>
<symbol  id="N" viewBox="-31.66 -35.38 63.33 70.75">
	<path class="st0" d="M-12.57,2.93v-36.16c0-1.85-0.43-2.12-2.42-2.12h-14.34c-1.55,0-2.32,0.71-2.32,2.12v60.6
		c0,6.05,1.55,7.98,7.37,7.98c8.77,0,10.04,0.62,13.84-4.55C6.87,4.87,1.95,12.39,11.87-3.13h0.71v36.36c0,1.82,0.4,2.12,2.42,2.12
		h14.34c1.55,0,2.32-0.71,2.32-2.12v-60.6c0-6.31-2.75-7.98-7.37-7.98c-7.89,0-10.34-0.7-13.84,4.54
		C-6.64-5.35-1.69-12.84-11.87,2.93H-12.57z"/>
</symbol>
<symbol  id="Nb" viewBox="-9.21 -0.01 18.41 21.75">
	<path class="st0" d="M-4.53,13.49V0.65C-4.53,0.13-4.65,0-5.24,0h-3.25c-0.54,0-0.71,0.2-0.71,0.65v18.91
		c0,1.63,0.52,2.17,2.01,2.17c2.35,0,2.58,0.24,3.63-1.4c6.32-9.63,4.58-6.94,7.94-12.21h0.16v12.96c0,0.52,0.17,0.65,0.71,0.65
		h3.25c0.47,0,0.71-0.22,0.71-0.65V2.14C9.21,0.45,8.47,0,7.19,0C4.8,0,4.55-0.18,3.57,1.36c-5.95,9-4.19,6.3-7.94,12.12H-4.53z"/>
</symbol>
<symbol  id="O" viewBox="-9.61 0 19.22 22.38">
	<path class="st0" d="M9.61,11.25C9.61,4.4,6.76,0-0.12,0c-6.73,0-9.49,4.45-9.49,11.16c0,6.44,3.22,11.22,9.58,11.22
		C6.6,22.38,9.61,17.89,9.61,11.25z M4.68,11.16c0,3.74-0.92,7.01-4.68,7.01c-3.37,0-4.68-3.43-4.68-6.82c0-3.89,0.84-7.1,4.71-7.1
		C3.6,4.25,4.68,7.59,4.68,11.16z"/>
</symbol>
<symbol  id="P" viewBox="-8.35 0 16.71 21.73">
	<path class="st0" d="M-3.64,0.65C-3.64,0.1-3.75,0-4.39,0h-3.25c-0.54,0-0.71,0.2-0.71,0.65v19.19c0,1.45,0.63,1.89,1.86,1.89H1.1
		c4.15,0,7.25-2.53,7.25-6.79c0-4-2.56-7.07-7.87-7.07h-4.12V0.65z M3.49,14.63c0,1.9-1.27,2.95-3.1,2.95h-4.03v-5.89h4.06
		C2.48,11.69,3.49,12.93,3.49,14.63z"/>
</symbol>
<symbol  id="R" viewBox="-29.71 0 59.48 70.7">
	<path class="st0" d="M29.58,2.63C30.18,0.52,29.36,0,27.76,0S13.82,0,13.82,0c-2.98,0-3.59,0.32-4.14,2.53
		C4.84,22.72,5.01,27.67-2.74,27.67h-7.88V2.02C-10.62,0.24-11,0-13.05,0h-14.34c-1.55,0-2.32,0.67-2.32,2.02v62.01
		c0,5.23,2.01,6.67,6.56,6.67H2.61c14.51,0,24.04-6.61,24.04-20.71c0-7.6-3.95-13.45-9.49-16.16v-0.2
		C25.01,30.04,24.14,21.72,29.58,2.63z M0.89,54.24h-11.51V42.62H0.89C8.94,42.62,9.09,54.24,0.89,54.24z"/>
</symbol>
<symbol  id="Rb" viewBox="-8.74 0 17.49 21.73">
	<path class="st0" d="M4.93,10.17c0.92-0.4,1.61-0.96,2.2-3.25l1.58-6.2C8.83,0.38,8.7,0,8.25,0H4.99C4.08,0,3.88,0.23,3.75,0.62
		L2.39,6.11C1.9,7.96,1.03,8.8-0.99,8.8H-4V0.65C-4,0.08-4.1,0-4.71,0h-3.32c-0.54,0-0.71,0.2-0.71,0.65v19.19
		c0,1.46,0.59,1.89,1.86,1.89h7.59c8.5,0,8.67-9.02,4.19-11.41L4.93,10.17z M0.25,17.58h-4.22v-4.96h4.12
		C3.87,12.62,3.95,17.58,0.25,17.58z"/>
</symbol>
<symbol  id="S" viewBox="-28.32 -0.11 56.64 73.04">
	<path class="st0" d="M-25.11,51c0,28.05,37.06,23.43,48.58,17.27c2.19-1.03,2.2-1.48,1.11-4.34l-2.73-8.38
		c-0.89-2.41-1.38-2.72-3.74-2.02c-6.68,1.86-26.06,5.55-23.08-2.17c2.61-6.86,33.28-7.25,33.28-29.54
		c0-29.28-42.12-23.48-55.45-15.25c-1.48,0.89-1.43,1.84-0.71,3.64l3.94,9.6c0.86,2.09,1.46,2.39,3.64,1.51
		c6.18-2.47,30.34-8.72,27.67,2.02C5.76,29.9-25.11,30.88-25.11,51z"/>
</symbol>
<symbol  id="Sb" viewBox="-8.31 -0.02 16.61 22.45">
	<path class="st0" d="M-7.44,16.12c0,7.53,9.76,7.14,14.32,4.87c0.48-0.24,0.51-0.38,0.31-0.99l-0.81-2.33
		c-0.19-0.53-0.31-0.6-0.84-0.46C2.87,18-2.54,19.28-2.54,16.49c0-3.49,10.85-2.64,10.85-10.01C8.31-1.88-3.6-0.72-8,1.95
		c-0.38,0.24-0.36,0.49-0.19,0.93l1.05,2.48c0.2,0.47,0.39,0.56,0.87,0.34C-2.18,4.06,2.29,3.58,3.1,5.6
		C4.94,10.19-7.44,8.99-7.44,16.12z"/>
</symbol>
<symbol  id="T" viewBox="-8.54 0 17.08 21.7">
	<path class="st0" d="M7.92,17.67H2.31V0.65C2.31,0.11,2.17,0,1.57,0h-3.32c-0.54,0-0.71,0.2-0.71,0.65v17.02h-5.49
		c-0.39,0-0.59,0.21-0.59,0.62v2.76c0,0.5,0.11,0.65,0.59,0.65H7.92c0.51,0,0.62-0.14,0.62-0.65v-2.76
		C8.54,17.88,8.33,17.67,7.92,17.67z"/>
</symbol>
<use xlink:href="#F"  width="52.07" height="70.77" x="-26.01" y="-0.07" transform="matrix(1 0 0 -1 26.0073 136.2912)"/>
<use xlink:href="#A"  width="65.91" height="70.8" x="-32.94" transform="matrix(1 0 0 -1 85.5583 136.2912)"/>
<use xlink:href="#R"  width="59.48" height="70.7" x="-29.71" transform="matrix(1 0 0 -1 155.353 136.2912)"/>
<use xlink:href="#M"  width="76.56" height="70.76" x="-38.28" transform="matrix(1 0 0 -1 232.6006 136.2912)"/>
<use xlink:href="#S"  width="56.64" height="73.04" x="-28.32" y="-0.11" transform="matrix(1 0 0 -1 387.5438 137.4016)"/>
<use xlink:href="#K"  width="63.65" height="70.7" x="-31.82" y="-35.35" transform="matrix(1 0 0 -1 457.6857 100.9411)"/>
<use xlink:href="#I"  width="19.09" height="70.7" x="-9.54" y="-35.35" transform="matrix(1 0 0 -1 509.1367 100.9411)"/>
<use xlink:href="#N"  width="63.33" height="70.75" x="-31.66" y="-35.38" transform="matrix(1 0 0 -1 567.0088 100.9411)"/>
<use xlink:href="#D"  width="17.58" height="21.73" x="-8.79" transform="matrix(1 0 0 -1 11.8992 179.6399)"/>
<use xlink:href="#Rb"  width="17.49" height="21.73" x="-8.74" transform="matrix(1 0 0 -1 33.5199 179.6399)"/>
<use xlink:href="#O"  width="19.22" height="22.38" x="-9.61" transform="matrix(1 0 0 -1 54.5698 179.9807)"/>
<use xlink:href="#P"  width="16.71" height="21.73" x="-8.35" transform="matrix(1 0 0 -1 76.6265 179.6399)"/>
<use xlink:href="#Ib"  width="4.74" height="21.7" x="-2.37" y="-10.85" transform="matrix(1 0 0 -1 100.0313 168.7898)"/>
<use xlink:href="#Sb"  width="16.61" height="22.45" x="-8.31" y="-0.02" transform="matrix(1 0 0 -1 114.5567 179.9807)"/>
<use xlink:href="#Bb"  width="17.06" height="21.73" x="-8.52" transform="matrix(1 0 0 -1 143.6626 179.6399)"/>
<use xlink:href="#E"  width="15.53" height="21.73" x="-7.77" transform="matrix(1 0 0 -1 164.0452 179.6399)"/>
<use xlink:href="#T"  width="17.08" height="21.7" x="-8.54" transform="matrix(1 0 0 -1 181.9316 179.6399)"/>
<use xlink:href="#H"  width="17.86" height="21.7" x="-8.93" transform="matrix(1 0 0 -1 402.8945 179.6399)"/>
<use xlink:href="#Ab"  width="19.51" height="21.78" x="-9.75" transform="matrix(1 0 0 -1 424.364 179.6399)"/>
<use xlink:href="#Nb"  width="18.41" height="21.75" x="-9.21" y="-0.01" transform="matrix(1 0 0 -1 446.1084 179.6399)"/>
<use xlink:href="#Fb"  width="15.38" height="21.73" x="-7.69" transform="matrix(1 0 0 -1 476.6743 179.6399)"/>
<use xlink:href="#Mb"  width="22.35" height="21.75" x="-11.18" transform="matrix(1 0 0 -1 542.0366 179.6399)"/>
<use xlink:href="#G"  width="18.01" height="22.42" x="-9.01" transform="matrix(1 0 0 -1 575.2368 179.9807)"/>
<use xlink:href="#S"  width="56.64" height="73.04" x="-28.32" y="-0.11" transform="matrix(1 0 0 -1 637.7679 137.5016)"/>
<use xlink:href="#T"  width="17.08" height="21.7" x="-8.54" transform="matrix(1 0 0 -1 199.8138 179.6399)"/>
<use xlink:href="#E"  width="15.53" height="21.73" x="-7.77" transform="matrix(1 0 0 -1 218.8594 179.6399)"/>
<use xlink:href="#Rb"  width="17.49" height="21.73" x="-8.74" transform="matrix(1 0 0 -1 238.9014 179.6399)"/>
<use xlink:href="#T"  width="17.08" height="21.7" x="-8.54" transform="matrix(1 0 0 -1 382.7847 179.6399)"/>
<use xlink:href="#Rb"  width="17.49" height="21.73" x="-8.74" transform="matrix(1 0 0 -1 496.0338 179.6399)"/>
<use xlink:href="#O"  width="19.22" height="22.38" x="-9.61" transform="matrix(1 0 0 -1 517.0945 179.9807)"/>
<use xlink:href="#Ab"  width="19.51" height="21.78" x="-9.75" transform="matrix(1 0 0 -1 596.1858 179.6399)"/>
<use xlink:href="#Bb"  width="17.06" height="21.73" x="-8.52" transform="matrix(1 0 0 -1 617.2764 179.6399)"/>
<use xlink:href="#E"  width="15.53" height="21.73" x="-7.77" transform="matrix(1 0 0 -1 637.65 179.6399)"/>
<use xlink:href="#Nb"  width="18.41" height="21.75" x="-9.21" y="-0.01" transform="matrix(1 0 0 -1 658.1555 179.6399)"/>
<path class="st1" d="M297.18,91.94C299.51,45.23,311.92,17.82,365.2,0c-17.48,16.41-46.27,50.13-30.53,96.94
	c0.57,1.68,2.25-0.39,2.73,1.2c0.63,2.11,1.64,3.65,2.91,5.66c-20.4,10.47-18.71,22.89-7.47,30.72c1.99,1.39,2.22,0.68,1.77,3.32
	c-1.23,7.2,1.7,14.88,8.36,19.67c2.46,1.76,1.98-0.16,1.88,3.02c-0.26,8.7,4.33,15.64,13.34,17.36
	c11.96,2.29,17.41,10.6,18.22,20.18c0.5,5.93-2.9,12.17-6.68,16.62c-1.2,1.41-0.1,5.86-1.48,8.78c-7.18-3.3-16.12-7.43-24.31-10.96
	c-0.54-0.23-0.46-2.22-0.97-2.48c-0.72-0.37-3.42,1.97-3.89,1.36c-16.39-21.32-30.38-58.67-35.93-72.83
	c-0.89-2.28-0.95-5.16-0.6-7.66c1.28-9.34,0.3-18.24-4.05-26.68c-1.35-2.62-2.62-5.21-3.95-7.91
	C292.7,92.57,297.04,94.55,297.18,91.94z M345.33,195.29c-0.09,7.15,5.33,12.78,12.43,12.94c5.3,0.11,10.27-4.63,10.47-10.01
	c0.26-7.03-5.71-13.11-12.88-13.09C349.7,185.14,345.4,189.5,345.33,195.29z"/>
<circle class="st1" cx="281.24" cy="167.94" r="12.22"/>
</svg>
